<?xml version="1.0" encoding="utf-8"?>
<svg xmlns="http://www.w3.org/2000/svg">
  <defs/>
  <rect x="230.359" y="107.19" width="421.442" height="400" style="fill: rgb(216, 216, 216); stroke: rgb(0, 0, 0);"/>
  <g>
    <path id="crop-marks-path" d="M 196.34300000000002 118.529 L 230.359 118.529 M 241.698 73.174 L 241.698 107.19 M 651.801 118.529 L 685.817 118.529 M 640.462 107.19 L 640.462 73.174 M 196.34300000000002 495.851 L 230.359 495.851 M 241.698 507.19 L 241.698 541.206 M 651.801 495.851 L 685.817 495.851 M 640.462 507.19 L 640.462 541.206" style="stroke: rgb(0, 0, 0); vector-effect: non-scaling-stroke;"/>
    <path d="M 227.35900000000004 90.182L 227.08984020788847 92.91482523080192L 226.29270449141814 95.54262952057017L 224.99822632913407 97.9644278241386L 223.2561517908612 100.08715179086116L 221.1334278241386 101.82922632913406L 218.7116295205702 103.12370449141811L 216.08382523080195 103.92084020788846L 213.35100000000003 104.19L 210.6181747691981 103.92084020788846L 207.99037047942986 103.12370449141811L 205.56857217586145 101.82922632913406L 203.44584820913886 100.08715179086116L 201.70377367086598 97.9644278241386L 200.40929550858192 95.54262952057019L 199.61215979211158 92.91482523080192L 199.34300000000002 90.182L 199.61215979211158 87.44917476919808L 200.40929550858192 84.82137047942983L 201.70377367086598 82.39957217586141L 203.44584820913886 80.27684820913885L 205.56857217586142 78.53477367086596L 207.99037047942986 77.2402955085819L 210.6181747691981 76.44315979211156L 213.35100000000003 76.174L 216.08382523080195 76.44315979211154L 218.7116295205702 77.2402955085819L 221.1334278241386 78.53477367086595L 223.25615179086117 80.27684820913885L 224.99822632913407 82.39957217586141L 226.29270449141814 84.82137047942983L 227.08984020788847 87.44917476919807" style="fill: white;"/>
    <path d="M 213.35100000000003 90.182 L 227.35900000000004 90.182 L 227.08984020788847 92.91482523080192 ZM 213.35100000000003 90.182 L 226.29270449141814 95.54262952057017 L 224.99822632913407 97.9644278241386 ZM 213.35100000000003 90.182 L 223.2561517908612 100.08715179086116 L 221.1334278241386 101.82922632913406 ZM 213.35100000000003 90.182 L 218.7116295205702 103.12370449141811 L 216.08382523080195 103.92084020788846 ZM 213.35100000000003 90.182 L 213.35100000000003 104.19 L 210.6181747691981 103.92084020788846 ZM 213.35100000000003 90.182 L 207.99037047942986 103.12370449141811 L 205.56857217586145 101.82922632913406 ZM 213.35100000000003 90.182 L 203.44584820913886 100.08715179086116 L 201.70377367086598 97.9644278241386 ZM 213.35100000000003 90.182 L 200.40929550858192 95.54262952057019 L 199.61215979211158 92.91482523080192 ZM 213.35100000000003 90.182 L 199.34300000000002 90.182 L 199.61215979211158 87.44917476919808 ZM 213.35100000000003 90.182 L 200.40929550858192 84.82137047942983 L 201.70377367086598 82.39957217586141 ZM 213.35100000000003 90.182 L 203.44584820913886 80.27684820913885 L 205.56857217586142 78.53477367086596 ZM 213.35100000000003 90.182 L 207.99037047942986 77.2402955085819 L 210.6181747691981 76.44315979211156 ZM 213.35100000000003 90.182 L 213.35100000000003 76.174 L 216.08382523080195 76.44315979211154 ZM 213.35100000000003 90.182 L 218.7116295205702 77.2402955085819 L 221.1334278241386 78.53477367086595 ZM 213.35100000000003 90.182 L 223.25615179086117 80.27684820913885 L 224.99822632913407 82.39957217586141 ZM 213.35100000000003 90.182 L 226.29270449141814 84.82137047942983 L 227.08984020788847 87.44917476919807 Z" style="fill: black;"/>
    <path d="M 682.8170000000001 524.198L 682.5478402078885 526.9308252308019L 681.7507044914182 529.5586295205702L 680.4562263291341 531.9804278241386L 678.7141517908613 534.1031517908611L 676.5914278241387 535.845226329134L 674.1696295205703 537.1397044914181L 671.541825230802 537.9368402078884L 668.8090000000001 538.206L 666.0761747691981 537.9368402078884L 663.4483704794299 537.1397044914181L 661.0265721758615 535.845226329134L 658.9038482091389 534.1031517908611L 657.1617736708661 531.9804278241386L 655.867295508582 529.5586295205702L 655.0701597921117 526.9308252308019L 654.801 524.198L 655.0701597921117 521.465174769198L 655.867295508582 518.8373704794299L 657.1617736708661 516.4155721758614L 658.9038482091389 514.2928482091388L 661.0265721758615 512.550773670866L 663.4483704794299 511.2562955085819L 666.0761747691981 510.4591597921115L 668.8090000000001 510.19L 671.541825230802 510.4591597921115L 674.1696295205703 511.2562955085819L 676.5914278241387 512.550773670866L 678.7141517908613 514.2928482091388L 680.4562263291341 516.4155721758614L 681.7507044914182 518.8373704794298L 682.5478402078885 521.465174769198" style="fill: white;"/>
    <path d="M 668.8090000000001 524.198 L 682.8170000000001 524.198 L 682.5478402078885 526.9308252308019 ZM 668.8090000000001 524.198 L 681.7507044914182 529.5586295205702 L 680.4562263291341 531.9804278241386 ZM 668.8090000000001 524.198 L 678.7141517908613 534.1031517908611 L 676.5914278241387 535.845226329134 ZM 668.8090000000001 524.198 L 674.1696295205703 537.1397044914181 L 671.541825230802 537.9368402078884 ZM 668.8090000000001 524.198 L 668.8090000000001 538.206 L 666.0761747691981 537.9368402078884 ZM 668.8090000000001 524.198 L 663.4483704794299 537.1397044914181 L 661.0265721758615 535.845226329134 ZM 668.8090000000001 524.198 L 658.9038482091389 534.1031517908611 L 657.1617736708661 531.9804278241386 ZM 668.8090000000001 524.198 L 655.867295508582 529.5586295205702 L 655.0701597921117 526.9308252308019 ZM 668.8090000000001 524.198 L 654.801 524.198 L 655.0701597921117 521.465174769198 ZM 668.8090000000001 524.198 L 655.867295508582 518.8373704794299 L 657.1617736708661 516.4155721758614 ZM 668.8090000000001 524.198 L 658.9038482091389 514.2928482091388 L 661.0265721758615 512.550773670866 ZM 668.8090000000001 524.198 L 663.4483704794299 511.2562955085819 L 666.0761747691981 510.4591597921115 ZM 668.8090000000001 524.198 L 668.8090000000001 510.19 L 671.541825230802 510.4591597921115 ZM 668.8090000000001 524.198 L 674.1696295205703 511.2562955085819 L 676.5914278241387 512.550773670866 ZM 668.8090000000001 524.198 L 678.7141517908613 514.2928482091388 L 680.4562263291341 516.4155721758614 ZM 668.8090000000001 524.198 L 681.7507044914182 518.8373704794298 L 682.5478402078885 521.465174769198 Z" style="fill: black;"/>
  </g>
  <path style="fill: none; stroke: rgb(255, 0, 241); stroke-dasharray: 4;" d="M 230.72 186.153 L 332.776 185.865 L 332.776 107.16"/>
  <path fill="rgb(255,0,0)" stroke="rgb(255,0,0)" stroke-width="0" d="M 388.089 187.946 C 394.022 186.46 399.905 186.335 405.399 187.946 C 411.138 189.628 417.206 193.914 421.711 198.265 C 426.18 202.583 447.357 213.814 452.669 215.908 C 457.14 217.671 459.601 220.675 462.989 224.231 C 466.943 228.381 470.365 235.901 474.64 239.877 C 478.437 243.407 483.546 243.474 486.957 247.533 C 491.077 252.436 494.599 261.281 496.278 268.838 C 497.996 276.572 499.157 286.308 496.944 293.472 C 494.832 300.306 490.19 306.119 483.961 311.115 C 476.617 317.005 465.121 322.48 454.001 325.096 C 442.004 327.919 423.867 327.388 414.054 326.428 C 407.28 325.765 404.81 325.763 398.741 322.433 C 389.533 317.38 369.89 299.801 364.454 293.472 C 361.741 290.314 349.552 283.112 345.479 280.489 C 341.916 278.194 339.252 275.046 337.157 272.167 C 335.281 269.588 333.833 267.035 333.162 264.177 C 332.479 261.271 332.71 258.232 333.162 254.857 C 333.679 250.992 334.106 246.46 336.491 242.207 C 339.385 237.046 357.225 210.743 359.793 206.255 C 361.841 202.676 363.829 201.178 367.45 198.598 C 372.362 195.098 381.415 189.617 388.089 187.946 Z" style="fill: rgb(166, 209, 48); stroke: rgb(129, 151, 57); stroke-width: 2px;"/>
  <rect x="332.732" y="186.784" width="165.429" height="140.413" style="fill: none; stroke: rgb(0, 0, 255); stroke-width: 2px; stroke-dasharray: 4;"/>
  <ellipse style="fill: rgb(0, 14, 255);" cx="332.632" cy="186.009" rx="5.045" ry="5.045"/>
  <text style="fill: rgb(51, 51, 51); font-family: 'Monaspace Xenon'; font-size: 28px; white-space: pre;" x="308.171" y="206.123">x</text>
  <text style="fill: rgb(51, 51, 51); font-family: 'Monaspace Xenon'; font-size: 28px; white-space: pre;" transform="matrix(1, 0, 0, 1, -2.088424, -2.088424)"><tspan x="341.808" y="176.222">y</tspan><tspan x="341.808" dy="1em">​</tspan></text>
  <path style="fill: none; stroke: rgb(255, 0, 241); stroke-dasharray: 2;" d="M 332.771 337.994 L 508.445 338.376 L 508.633 185.578"/>
  <text style="fill: rgb(51, 51, 51); font-family: 'Monaspace Xenon'; font-size: 28px; white-space: pre;" x="411.47" y="365.558">w</text>
  <text style="fill: rgb(51, 51, 51); font-family: 'Monaspace Xenon'; font-size: 28px; white-space: pre;" x="517.553" y="271.579">h</text>
  <ellipse style="fill: rgb(255, 0, 241);" cx="332.538" cy="338.155" rx="3.133" ry="3.133"/>
  <ellipse style="fill: rgb(255, 0, 241);" cx="508.9" cy="186.716" rx="3.133" ry="3.133"/>
</svg>